<?xml version="1.0" standalone="no"?>
<!DOCTYPE svg PUBLIC "-//W3C//DTD SVG 20010904//EN"
 "http://www.w3.org/TR/2001/REC-SVG-20010904/DTD/svg10.dtd">
<svg version="1.0" xmlns="http://www.w3.org/2000/svg"
 width="1280.000000pt" height="1120.000000pt" viewBox="0 0 1280.000000 1120.000000"
 preserveAspectRatio="xMidYMid meet">

<g transform="translate(0.000000,1120.000000) scale(0.100000,-0.100000)"
fill="#000000" stroke="none">
<path d="M3480 6919 l0 -4281 -27 18 c-218 145 -430 222 -718 260 -146 20
-475 14 -630 -10 -750 -119 -1459 -552 -1842 -1125 -156 -234 -247 -492 -260
-736 -23 -430 212 -802 633 -1002 l91 -43 721 0 720 0 104 36 c150 52 394 158
495 216 569 324 960 795 1090 1315 16 63 18 281 23 3063 l5 2995 4265 0 4265
0 3 -2492 c1 -1371 0 -2493 -3 -2493 -2 0 -35 20 -72 44 -159 102 -356 178
-568 218 -104 19 -153 22 -370 23 -266 0 -353 -9 -574 -61 -838 -196 -1571
-775 -1814 -1434 -105 -283 -108 -571 -11 -818 98 -248 321 -467 593 -583 l66
-28 718 -1 719 0 91 31 c110 38 412 166 482 205 28 15 113 69 190 120 463 305
799 733 909 1158 l26 98 0 4794 0 4794 -4660 0 -4660 0 0 -4281z m8938 2494
l-3 -558 -4265 0 -4265 0 -3 558 -2 557 4270 0 4270 0 -2 -557z"/>
</g>
</svg>
